<svg xmlns="http://www.w3.org/2000/svg" xmlns:xlink="http://www.w3.org/1999/xlink" width="2000" zoomAndPan="magnify" viewBox="0 0 1500 1499.999933" height="2000" preserveAspectRatio="xMidYMid meet" version="1.0"><path fill="#000000" d="M 444.367188 149.144531 C 412.164062 160.632812 392.164062 175.09375 392.164062 186.882812 C 392.164062 197.464844 398.914062 204.695312 408.785156 204.695312 C 412.871094 204.695312 423.617188 211.523438 432.667969 219.863281 L 449.125 235.035156 L 436.351562 242.933594 C 420.4375 252.765625 418.984375 256.59375 418.984375 288.703125 C 418.984375 319.019531 419.558594 319.75 460.601562 341.078125 L 488.816406 355.738281 L 473.410156 362.28125 C 457.867188 368.882812 451.402344 378.757812 455.550781 389.566406 C 458.878906 398.246094 435.808594 439.363281 423.691406 446.335938 C 417.941406 449.648438 409.789062 459.230469 405.574219 467.628906 C 401.359375 476.023438 385.84375 495.105469 371.09375 510.019531 C 340.300781 541.160156 323.871094 547.367188 313.621094 531.726562 C 309.789062 525.878906 305.621094 523.714844 301.164062 525.273438 C 293.109375 528.082031 262.828125 556.324219 257.566406 565.9375 C 252.089844 575.941406 257.027344 587.085938 269.878906 593.730469 C 279 598.445312 280.707031 601.308594 278.839844 608.734375 C 275.730469 621.132812 279.941406 632.921875 288.4375 635.621094 C 292.28125 636.84375 298.226562 645.175781 301.652344 654.144531 C 312.308594 682.050781 308.496094 696.5 293.019531 686.835938 C 287.195312 683.199219 284.277344 683.171875 280.003906 686.722656 C 276.972656 689.234375 269.503906 690.507812 263.410156 689.542969 C 223.867188 683.308594 220.339844 683.410156 217.96875 690.867188 C 216.496094 695.519531 213.195312 697.496094 208.820312 696.351562 C 205.0625 695.367188 199.695312 697.320312 196.898438 700.691406 C 189.410156 709.710938 196.132812 721.332031 221.246094 742.789062 C 241.40625 760.011719 243.273438 760.792969 254.738281 756.796875 C 269.160156 751.769531 273.398438 751.503906 273.398438 755.625 C 273.398438 760.738281 249.074219 767.835938 239.855469 765.417969 C 230.3125 762.917969 219.757812 769.605469 219.757812 778.152344 C 219.757812 781.171875 224.613281 788.292969 230.546875 793.964844 C 236.484375 799.644531 246.890625 811.511719 253.679688 820.347656 C 260.46875 829.183594 272.089844 840.15625 279.503906 844.738281 C 292.773438 852.941406 293.34375 852.964844 316.714844 846.53125 C 348.78125 837.695312 356.828125 831.902344 359.917969 815.433594 C 361.703125 805.925781 363.5 803.21875 365.683594 806.75 C 367.429688 809.574219 367.875 815.8125 366.667969 820.613281 C 365.460938 825.414062 366.574219 834.394531 369.132812 840.574219 C 372.988281 849.890625 372.664062 854.742188 367.214844 869.003906 C 361.511719 883.945312 361.242188 889.621094 365.179688 912.289062 C 367.671875 926.640625 373.039062 950.414062 377.105469 965.121094 C 381.171875 979.832031 384.503906 998.304688 384.503906 1006.175781 C 384.503906 1026.25 394.21875 1052.609375 411.996094 1080.757812 C 423.21875 1098.527344 429.035156 1113.640625 434.199219 1138.460938 C 443.21875 1181.804688 447.144531 1191.390625 463.105469 1209.058594 C 470.339844 1217.066406 477.410156 1228.398438 478.816406 1234.25 C 480.222656 1240.09375 484.363281 1250.914062 488.019531 1258.289062 C 491.675781 1265.664062 496.613281 1280.886719 498.992188 1292.121094 C 507.140625 1330.566406 517.617188 1348.980469 538.722656 1361.96875 C 551.296875 1369.703125 560.871094 1373.0625 566.382812 1371.679688 C 580.523438 1368.132812 595.222656 1354.203125 595.222656 1344.351562 C 595.222656 1334.039062 602.046875 1329.453125 623 1325.667969 C 636.480469 1323.234375 642.136719 1315.324219 633.988281 1310.296875 C 632.136719 1309.144531 633.425781 1302.203125 636.863281 1294.867188 C 641.671875 1284.601562 645.46875 1281.5 653.335938 1281.402344 C 671.425781 1281.179688 675.667969 1277.910156 671.628906 1267.292969 C 669.640625 1262.066406 668.015625 1247.128906 668.015625 1234.09375 C 668.011719 1214.96875 670.378906 1205.785156 680.273438 1186.492188 C 692.230469 1163.175781 692.410156 1162.085938 687.546875 1142.433594 C 681.800781 1119.195312 682.039062 1071 687.933594 1063.890625 C 690.136719 1061.238281 695.953125 1059.066406 700.855469 1059.066406 C 706.539062 1059.066406 713.472656 1054.207031 719.996094 1045.65625 C 728.460938 1034.558594 732.6875 1032.246094 744.503906 1032.246094 C 760.425781 1032.246094 770.007812 1024.292969 772.070312 1009.363281 C 772.945312 1002.992188 778.394531 997.085938 788.699219 991.328125 C 797.128906 986.621094 805.949219 978.105469 808.300781 972.414062 C 810.652344 966.71875 819.132812 957.589844 827.148438 952.132812 C 835.164062 946.675781 849.722656 931.867188 859.496094 919.222656 C 869.269531 906.582031 881.386719 894.511719 886.414062 892.40625 C 925.789062 875.910156 940.28125 860.65625 941.375 834.542969 C 941.910156 821.765625 943.609375 819.980469 966.6875 807.902344 C 982.523438 799.621094 994.476562 795.726562 999.898438 797.085938 C 1013.277344 800.445312 1016.445312 789.421875 1011.0625 758.273438 C 1008.511719 743.503906 1004.269531 727.398438 1001.636719 722.476562 C 999.003906 717.5625 997.886719 709.414062 999.148438 704.375 C 1001.488281 695.066406 995.3125 686.34375 980.183594 677.597656 C 973.390625 673.671875 973.421875 673.199219 981.097656 665.527344 C 985.492188 661.132812 992.703125 656.394531 997.125 654.988281 C 1009.464844 651.070312 1006.816406 643.324219 987.828125 627.765625 C 978.292969 619.949219 971.484375 612.558594 972.703125 611.339844 C 976.234375 607.8125 1001.4375 607.875 1003.628906 611.421875 C 1004.722656 613.191406 1009.824219 614.640625 1014.96875 614.640625 C 1022.953125 614.640625 1024.328125 616.460938 1024.378906 627.089844 C 1024.488281 649.683594 1026.652344 650.597656 1073.773438 647.902344 L 1116.273438 645.46875 L 1116.273438 655.46875 C 1116.273438 665.617188 1101.664062 681.574219 1088.503906 685.796875 C 1073.953125 690.464844 1076.882812 720.480469 1093.347656 735.382812 C 1103.199219 744.296875 1114.289062 741.238281 1114.660156 729.507812 C 1115.15625 713.890625 1116.089844 710.421875 1119.804688 710.421875 C 1123.910156 710.421875 1130.171875 728.671875 1133.613281 750.648438 C 1137.738281 777.03125 1143.089844 787.046875 1153.058594 787.046875 C 1163.777344 787.046875 1168.042969 775.007812 1165.101562 753.078125 C 1163.902344 744.132812 1165.167969 736.011719 1168.457031 731.503906 C 1171.363281 727.53125 1173.742188 718.070312 1173.742188 710.480469 C 1173.742188 698.296875 1175.164062 696.253906 1185.929688 693.015625 C 1195.972656 689.992188 1199.292969 685.976562 1204.789062 670.191406 C 1208.460938 659.65625 1211.65625 645.003906 1211.890625 637.628906 C 1212.128906 630.253906 1214.789062 619.90625 1217.800781 614.640625 C 1220.8125 609.371094 1223.335938 597.679688 1223.414062 588.660156 C 1223.5 577.808594 1225.464844 571.519531 1229.21875 570.078125 C 1232.335938 568.882812 1238.628906 561.84375 1243.203125 554.441406 C 1251.050781 541.746094 1252.46875 541.085938 1268.117188 542.851562 C 1287.691406 545.054688 1295.449219 539.171875 1288.960938 527.050781 C 1285.835938 521.210938 1286.449219 516.613281 1291.566406 507.441406 C 1298.132812 495.683594 1298.085938 495.324219 1289.210938 488.003906 C 1284.238281 483.902344 1276.207031 480.546875 1271.371094 480.546875 C 1264.464844 480.546875 1263.003906 478.902344 1264.578125 472.890625 C 1266.851562 464.199219 1257.65625 448.183594 1247.164062 442.570312 C 1241.78125 439.691406 1236.914062 441.09375 1226.433594 448.550781 C 1213.636719 457.65625 1211.800781 457.964844 1198.601562 453.191406 C 1185.324219 448.390625 1184.039062 448.621094 1177.191406 457.074219 C 1173.183594 462.023438 1169.910156 468.355469 1169.910156 471.148438 C 1169.910156 474.070312 1164.65625 476.738281 1157.546875 477.429688 C 1149.894531 478.171875 1143.671875 481.554688 1141.226562 486.292969 C 1139.046875 490.507812 1131.367188 499.746094 1124.148438 506.816406 C 1112.714844 518.027344 1109.152344 519.425781 1096.410156 517.71875 C 1081.964844 515.777344 1081.789062 515.910156 1081.789062 528.726562 C 1081.789062 539.371094 1083.511719 542.132812 1091.367188 544.101562 C 1098.246094 545.832031 1100.945312 549.089844 1100.945312 555.667969 C 1100.945312 560.710938 1098.792969 564.925781 1096.15625 565.039062 C 1093.523438 565.15625 1077.574219 566.953125 1060.71875 569.035156 C 1010.914062 575.191406 996.191406 572.808594 995.378906 558.449219 C 995.042969 552.625 994.691406 546.800781 994.328125 540.976562 C 993.40625 526.332031 979.015625 517.335938 965.027344 522.65625 C 956.9375 525.730469 954.984375 528.503906 956.589844 534.636719 C 957.734375 539.027344 956.898438 546.515625 954.726562 551.277344 C 951.757812 557.800781 952.292969 562.867188 956.902344 571.777344 C 964.332031 586.148438 964.328125 585.964844 957.601562 592.699219 C 953.328125 596.96875 947.839844 597.371094 931.738281 594.59375 C 862.496094 582.65625 849.683594 578.808594 844.042969 568.273438 C 838.738281 558.367188 813.246094 551.210938 802.925781 556.734375 C 791.535156 562.828125 783.566406 562.039062 773.054688 553.773438 C 768 549.796875 757.425781 545.335938 749.554688 543.859375 C 741.640625 542.375 729.050781 535.574219 721.378906 528.644531 C 713.746094 521.75 699.402344 513.015625 689.496094 509.234375 C 676.960938 504.445312 672.710938 501.140625 675.503906 498.347656 C 677.703125 496.144531 679.507812 489.828125 679.507812 484.316406 C 679.507812 477.632812 684.085938 470.238281 693.25 462.128906 C 700.808594 455.441406 706.308594 447.921875 705.476562 445.429688 C 704.644531 442.929688 692.859375 433.457031 679.289062 424.371094 C 636.597656 395.804688 625.871094 387.28125 625.871094 381.925781 C 625.871094 379.0625 623.375 371.890625 620.320312 365.988281 C 614.96875 355.640625 615.085938 355.3125 623.554688 356.929688 C 629.097656 357.992188 636.195312 355.289062 642.8125 349.597656 C 652.980469 340.851562 653.144531 340.113281 648.210938 324.320312 C 645.417969 315.375 640.113281 307.097656 636.417969 305.925781 C 632.726562 304.753906 629.703125 302.324219 629.703125 300.53125 C 629.703125 293.078125 634.691406 285.152344 639.378906 285.152344 C 642.144531 285.152344 648.128906 279.128906 652.675781 271.765625 C 657.226562 264.40625 663.09375 257.078125 665.714844 255.484375 C 668.332031 253.890625 673.410156 245.128906 676.996094 236.007812 L 683.515625 219.429688 L 669.964844 205.878906 C 656.695312 192.609375 655.972656 192.386719 634.480469 195.070312 C 622.417969 196.582031 606.128906 201.085938 598.285156 205.085938 C 581.09375 213.859375 576.066406 214.207031 576.066406 206.613281 C 576.066406 202.78125 572.234375 200.863281 564.570312 200.863281 C 555.683594 200.863281 553.078125 199.152344 553.078125 193.300781 C 553.078125 188.644531 548.296875 183.265625 540.625 179.296875 C 533.78125 175.757812 522.140625 166.109375 514.765625 157.851562 C 497.214844 138.199219 480.746094 136.167969 444.367188 149.144531 M 444.15625 157.074219 C 429.550781 162.171875 413.601562 170.105469 408.714844 174.695312 C 397.339844 185.382812 396.957031 197.035156 407.984375 197.035156 C 412.472656 197.035156 422.519531 202.636719 430.316406 209.484375 C 438.113281 216.335938 447.808594 224.019531 451.851562 226.566406 C 458.765625 230.914062 458.207031 232.082031 442.738281 245.722656 L 426.265625 260.25 L 427.414062 288.53125 L 428.5625 316.816406 L 462.085938 333.960938 C 480.527344 343.390625 495.609375 353.550781 495.609375 356.535156 C 495.609375 359.523438 490.871094 363.648438 485.074219 365.699219 C 465.691406 372.570312 463.054688 375.574219 462.691406 391.195312 C 462.46875 400.863281 458.644531 411.808594 452.15625 421.359375 C 446.554688 429.605469 441.972656 438.625 441.972656 441.402344 C 441.972656 444.183594 436.140625 448.890625 429.011719 451.871094 C 420.324219 455.5 415.1875 460.726562 413.433594 467.722656 C 409.917969 481.71875 397.453125 498.726562 388.664062 501.515625 C 384.742188 502.757812 377.027344 510.578125 371.53125 518.890625 C 359.109375 537.65625 348.855469 544.222656 327.972656 546.785156 C 313.183594 548.601562 311.460938 547.929688 309.359375 539.566406 C 308.089844 534.496094 305.574219 530.351562 303.773438 530.351562 C 298.667969 530.351562 261.910156 569.988281 261.90625 575.5 C 261.902344 578.203125 267.9375 583.976562 275.3125 588.332031 C 288.195312 595.933594 292.941406 607.75 285.058594 612.621094 C 279.640625 615.96875 284.828125 626.359375 293.527344 629.574219 C 300.96875 632.328125 310.488281 652.1875 314.445312 673.214844 C 317.265625 688.203125 306.589844 699.703125 294.226562 695.003906 C 288.453125 692.808594 284.28125 692.980469 282.742188 695.472656 C 280.488281 699.117188 247.207031 697.300781 230.296875 692.609375 C 225.492188 691.277344 223.589844 692.964844 223.589844 698.574219 C 223.589844 705.226562 221.867188 706.054688 212.097656 704.097656 C 194.320312 700.542969 197.53125 710.234375 221.710938 733.101562 C 239.003906 749.457031 244.363281 752.539062 251.402344 750.167969 C 268.125 744.535156 279.144531 746.246094 279.144531 754.480469 C 279.144531 765.25 256.09375 776.238281 239.875 773.199219 C 223.910156 770.210938 223.472656 776.773438 238.582031 792.597656 C 244.71875 799.027344 257.035156 812.503906 265.949219 822.550781 C 274.863281 832.597656 285.964844 841.769531 290.613281 842.9375 C 303.367188 846.136719 341.40625 833.765625 348.070312 824.242188 C 351.25 819.703125 353.851562 810.667969 353.851562 804.167969 C 353.851562 790.300781 363.765625 773.761719 366.40625 783.214844 C 367.292969 786.375 369.898438 794.6875 372.199219 801.691406 C 374.503906 808.691406 375.390625 817.011719 374.179688 820.175781 C 372.964844 823.339844 374.113281 832.421875 376.734375 840.363281 C 380.820312 852.75 380.5625 856.601562 374.890625 867.570312 C 366.960938 882.902344 368.46875 900.851562 382.554688 958.738281 C 387.839844 980.46875 392.164062 1004.230469 392.164062 1011.542969 C 392.164062 1027.730469 399.292969 1045.464844 418.960938 1078.222656 C 429.367188 1095.550781 436.207031 1113.613281 441.445312 1137.605469 C 451.148438 1182 454.210938 1189.542969 469.210938 1205.886719 C 482.453125 1220.3125 495.058594 1250.261719 507.242188 1296.242188 C 517.191406 1333.804688 524.632812 1345.53125 546.089844 1357.492188 L 564.003906 1367.480469 L 574.335938 1359.769531 C 580.019531 1355.527344 586.613281 1346.042969 588.988281 1338.695312 C 592.699219 1327.210938 595.605469 1324.828125 609.707031 1321.703125 C 621.277344 1319.136719 625.503906 1316.496094 624.0625 1312.734375 C 622.9375 1309.804688 624.472656 1302.820312 627.472656 1297.214844 C 630.476562 1291.609375 633.875 1284.003906 635.027344 1280.320312 C 636.476562 1275.683594 641.089844 1273.613281 649.964844 1273.613281 L 662.808594 1273.613281 L 661.136719 1241.710938 C 659.523438 1210.980469 659.960938 1208.878906 673.074219 1184.59375 L 686.683594 1159.386719 L 679.984375 1137.003906 C 675.054688 1120.53125 673.886719 1107.683594 675.558594 1088.359375 C 678 1060.1875 684.097656 1051.402344 701.214844 1051.402344 C 707.058594 1051.402344 711.933594 1047.585938 715.90625 1039.910156 C 720.457031 1031.109375 724.480469 1028.414062 733.066406 1028.414062 C 750.53125 1028.414062 762.042969 1021.300781 765.960938 1008.085938 C 768.230469 1000.429688 775.355469 992.125 785.40625 985.421875 C 794.230469 979.53125 802.328125 970.597656 803.664062 965.277344 C 805.171875 959.277344 811.675781 952.851562 821.128906 948.03125 C 829.851562 943.578125 841.34375 932.679688 848.449219 922.121094 C 866.367188 895.484375 879.125 882.828125 888.070312 882.8125 C 898.992188 882.792969 919.140625 869.886719 927.023438 857.855469 C 930.628906 852.351562 933.738281 840.628906 933.933594 831.808594 L 934.289062 815.78125 L 963.023438 801.558594 C 978.824219 793.738281 994.628906 788.203125 998.140625 789.265625 C 1001.648438 790.320312 1005.488281 789.628906 1006.664062 787.71875 C 1009.738281 782.742188 1001.609375 741.363281 994.722656 726.941406 C 991.394531 719.980469 989.910156 710.667969 991.261719 705.28125 C 993.242188 697.394531 991.417969 694.519531 980.242188 687.929688 C 972.878906 683.582031 966.851562 677.707031 966.851562 674.871094 C 966.851562 668.585938 986.5625 649.121094 992.925781 649.121094 C 1001.535156 649.121094 997.515625 642.222656 984.394531 634.476562 C 969.296875 625.574219 962.160156 614.566406 966.710938 607.207031 C 970.234375 601.507812 1001.121094 598.425781 1007.082031 603.183594 C 1009.1875 604.867188 1015.222656 606.839844 1020.492188 607.566406 C 1028.730469 608.710938 1030.230469 611.121094 1031.230469 624.84375 C 1031.996094 635.335938 1034.546875 641.625 1038.6875 643.214844 C 1042.15625 644.542969 1060.9375 643.542969 1080.429688 640.992188 C 1119.617188 635.863281 1128.515625 638.464844 1125.132812 654.050781 C 1121.46875 670.960938 1114.324219 680.609375 1100.117188 687.859375 C 1083.636719 696.265625 1082.253906 702.933594 1093.242188 720.957031 C 1101.691406 734.8125 1108.980469 737.578125 1105.890625 725.753906 C 1103.800781 717.761719 1113.773438 698.925781 1120.089844 698.925781 C 1125.761719 698.925781 1135.019531 719.46875 1139.433594 741.835938 C 1141.332031 751.488281 1143.273438 761.128906 1145.253906 770.761719 C 1146.25 775.507812 1149.726562 779.382812 1152.980469 779.382812 C 1157.773438 779.382812 1158.675781 775.0625 1157.757812 756.527344 C 1157.042969 742.101562 1158.371094 731.921875 1161.351562 728.941406 C 1163.953125 726.339844 1166.078125 715.9375 1166.078125 705.824219 C 1166.078125 687.875 1166.359375 687.433594 1177.765625 687.433594 C 1187.652344 687.433594 1190.382812 685.214844 1195.464844 673.066406 C 1198.769531 665.167969 1202.667969 650.078125 1204.128906 639.542969 C 1205.59375 629.007812 1208.835938 616.621094 1211.335938 612.019531 C 1213.839844 607.417969 1215.882812 596.621094 1215.882812 588.035156 C 1215.882812 576.988281 1218.191406 570.46875 1223.769531 565.753906 C 1228.105469 562.085938 1235.214844 553.367188 1239.570312 546.375 C 1246.683594 534.941406 1249.074219 533.761719 1263.292969 534.636719 C 1280.089844 535.667969 1282.242188 534.167969 1278.382812 524.125 C 1277.054688 520.65625 1277.972656 515.035156 1280.429688 511.632812 C 1292.683594 494.660156 1288.929688 488.375 1266.476562 488.265625 C 1254.316406 488.210938 1253.9375 487.75 1256.175781 475.757812 C 1257.960938 466.214844 1256.601562 461.269531 1250.375 454.601562 C 1241.863281 445.484375 1238.710938 446.007812 1224.429688 458.867188 C 1216.597656 465.921875 1214.378906 466.21875 1202.210938 461.816406 C 1186.695312 456.207031 1179.796875 459.652344 1175.957031 474.957031 C 1174.011719 482.707031 1171.226562 484.378906 1160.257812 484.378906 C 1149.9375 484.378906 1146.921875 485.949219 1146.921875 491.320312 C 1146.921875 495.140625 1141.75 502.085938 1135.429688 506.757812 C 1129.105469 511.433594 1123.933594 517.789062 1123.933594 520.890625 C 1123.933594 525.089844 1119.089844 526.519531 1104.898438 526.519531 C 1089.894531 526.519531 1086.3125 527.691406 1087.980469 532.046875 C 1089.148438 535.078125 1093.808594 538.097656 1098.34375 538.75 C 1104.601562 539.648438 1107.15625 543.429688 1108.933594 554.433594 C 1110.222656 562.40625 1110.167969 569.613281 1108.816406 570.453125 C 1107.460938 571.289062 1084.664062 574.015625 1058.15625 576.507812 C 1002.984375 581.695312 988.179688 578.425781 987.621094 560.933594 C 986.839844 536.378906 985.605469 531.019531 980.261719 528.964844 C 972.691406 526.0625 962.65625 530.078125 963.75 535.578125 C 964.222656 537.972656 963.351562 544.699219 961.8125 550.53125 C 960.035156 557.257812 960.976562 564.875 964.390625 571.390625 C 968.410156 579.058594 968.785156 584.46875 965.878906 592.800781 L 961.992188 603.949219 L 932.816406 601.40625 C 916.765625 600.003906 898.464844 597.382812 892.144531 595.578125 C 885.820312 593.773438 874.53125 591.277344 867.050781 590.027344 C 858.886719 588.667969 847.617188 582.261719 838.867188 574.003906 C 823.820312 559.816406 822.972656 559.679688 793.695312 566.925781 C 786.25 568.765625 780.101562 567.15625 771.699219 561.175781 C 765.289062 556.609375 754.144531 551.914062 746.941406 550.746094 C 739.742188 549.578125 725.769531 541.941406 715.894531 533.785156 C 706.019531 525.625 691.296875 516.957031 683.179688 514.523438 C 667.757812 509.90625 661.136719 501.214844 667.890625 494.464844 C 670.066406 492.289062 671.847656 486.34375 671.847656 481.253906 C 671.847656 475.484375 677.15625 467.136719 685.945312 459.085938 C 693.703125 451.980469 699.304688 445.707031 698.398438 445.144531 C 697.492188 444.582031 691.523438 440.480469 685.136719 436.023438 C 678.75 431.566406 666.253906 424.210938 657.359375 419.675781 C 648.46875 415.140625 641.195312 409.832031 641.195312 407.882812 C 641.195312 405.933594 636.523438 402.089844 630.808594 399.34375 C 624.34375 396.226562 619.421875 390.007812 617.769531 382.847656 C 616.308594 376.527344 612.871094 365.820312 610.132812 359.050781 C 604.019531 343.960938 606.453125 340.921875 619.792969 346.996094 C 628.625 351.023438 631.054688 350.636719 637.519531 344.167969 C 644.058594 337.632812 644.429688 335.136719 640.441406 324.574219 C 637.933594 317.921875 632.78125 311.664062 628.996094 310.675781 C 623.464844 309.230469 622.335938 305.601562 623.246094 292.226562 C 624.179688 278.503906 625.730469 275.574219 632.042969 275.574219 C 641.6875 275.574219 664.457031 250.039062 670.507812 232.433594 C 674.710938 220.203125 674.316406 218.394531 665.699219 210.40625 C 655.003906 200.496094 642.230469 196.089844 639.058594 201.226562 C 637.878906 203.132812 631.410156 204.703125 624.6875 204.710938 C 617.964844 204.71875 606.820312 208.167969 599.917969 212.375 C 585.253906 221.3125 573.863281 222.1875 569.550781 214.699219 C 567.867188 211.777344 563.082031 208.742188 558.921875 207.964844 C 554.761719 207.1875 549.351562 202.519531 546.894531 197.601562 C 544.4375 192.679688 537.167969 185.453125 530.726562 181.535156 C 524.28125 177.617188 516.308594 170.285156 513.003906 165.242188 C 506.136719 154.761719 491.496094 147.097656 479.144531 147.511719 C 474.503906 147.667969 458.757812 151.96875 444.15625 157.074219 " fill-opacity="1" fill-rule="evenodd"/></svg>